<?xml version="1.0" encoding="utf-8"?>
<!-- Generator: Adobe Illustrator 27.5.0, SVG Export Plug-In . SVG Version: 6.00 Build 0)  -->
<svg version="1.1" id="Layer_1" xmlns="http://www.w3.org/2000/svg" xmlns:xlink="http://www.w3.org/1999/xlink" x="0px" y="0px"
	 viewBox="0 0 7000 4081" style="enable-background:new 0 0 7000 4081;" xml:space="preserve">
<g>
	<rect x="0" style="fill-rule:evenodd;clip-rule:evenodd;fill:#003780;" width="7000" height="4081"/>
	<polygon style="fill-rule:evenodd;clip-rule:evenodd;fill:#40C7D7;" points="353.242,1545.266 815.765,1257.767 0,0 	"/>
	<polygon style="fill-rule:evenodd;clip-rule:evenodd;fill:#2EA3C3;" points="353.242,1545.266 0,0 0,2657.768 	"/>
	<polygon style="fill-rule:evenodd;clip-rule:evenodd;fill:#1B7AAD;" points="1097.029,2320.268 353.242,1545.266 0,2657.768 	"/>
	<polygon style="fill-rule:evenodd;clip-rule:evenodd;fill:#2EA3C3;" points="353.242,1545.266 1097.029,2320.268 815.765,1257.767 
			"/>
	<polygon style="fill-rule:evenodd;clip-rule:evenodd;fill:#40C7D7;" points="959.62,1051.4 1240.884,2113.9 2215.933,2063.9 	"/>
	<polygon style="fill-rule:evenodd;clip-rule:evenodd;fill:#0D5F9E;" points="1097.029,2320.268 0,2657.768 1434.546,2982.768 	"/>
	<polygon style="fill-rule:evenodd;clip-rule:evenodd;fill:#2EA3C3;" points="1097.029,2320.268 1434.546,2982.768 
		1834.565,2870.268 	"/>
	<polygon style="fill-rule:evenodd;clip-rule:evenodd;fill:#1B7AAD;" points="1097.029,2320.268 1834.565,2870.268 
		2072.078,2270.268 	"/>
	<polygon style="fill-rule:evenodd;clip-rule:evenodd;fill:#034C93;" points="1434.546,2982.768 0,2657.768 1672.058,4081 	"/>
	<polygon style="fill-rule:evenodd;clip-rule:evenodd;fill:#0D5F9E;" points="1434.546,2982.768 1672.058,4081 1834.565,2870.268 	
		"/>
	<polygon style="fill-rule:evenodd;clip-rule:evenodd;fill:#0D5F9E;" points="1672.058,4081 0,2657.768 0,3507.768 	"/>
	<polygon style="fill-rule:evenodd;clip-rule:evenodd;fill:#034C93;" points="1672.058,4081 0,3507.768 0,4081 	"/>
	<polygon style="fill-rule:evenodd;clip-rule:evenodd;fill:#034C93;" points="1834.565,2870.268 1672.058,4081 2622.106,4081 	"/>
	<polygon style="fill-rule:evenodd;clip-rule:evenodd;fill:#0D5F9E;" points="1834.565,2870.268 2622.106,4081 4109.682,4081 	"/>
	<polygon style="fill-rule:evenodd;clip-rule:evenodd;fill:#1B7AAD;" points="1834.565,2870.268 4109.682,4081 4120.178,4048.63 
		3509.65,3157.769 	"/>
	<polygon style="fill-rule:evenodd;clip-rule:evenodd;fill:#2EA3C3;" points="1834.565,2870.268 3509.65,3157.769 
		2072.078,2270.268 	"/>
	<polygon style="fill-rule:evenodd;clip-rule:evenodd;fill:#40C7D7;" points="2432.811,2205.642 3565.722,2905.058 
		4373.539,2599.679 	"/>
	<polygon style="fill-rule:evenodd;clip-rule:evenodd;fill:#2EA3C3;" points="4534.703,2770.268 3509.65,3157.769 4120.178,4048.63 
			"/>
	<polygon style="fill-rule:evenodd;clip-rule:evenodd;fill:#1B7AAD;" points="4534.703,2770.268 4120.178,4048.63 
		4131.919,4065.761 4909.722,3532.769 	"/>
	<polygon style="fill-rule:evenodd;clip-rule:evenodd;fill:#2EA3C3;" points="4909.722,3532.769 4131.919,4065.761 4109.682,4081 
		7000,4081 	"/>
	<polygon style="fill-rule:evenodd;clip-rule:evenodd;fill:#40C7D7;" points="4534.703,2770.268 4909.722,3532.769 7000,4081 	"/>
</g>
</svg>
